<?xml version="1.0" encoding="UTF-8" standalone="no"?>
<!-- Created with Inkscape (http://www.inkscape.org/) -->

<svg
   version="1.1"
   id="svg2"
   width="6666.6665"
   height="5555.5601"
   viewBox="0 0 6666.6665 5555.5601"
   sodipodi:docname="banner.eps"
   xmlns:inkscape="http://www.inkscape.org/namespaces/inkscape"
   xmlns:sodipodi="http://sodipodi.sourceforge.net/DTD/sodipodi-0.dtd"
   xmlns="http://www.w3.org/2000/svg"
   xmlns:svg="http://www.w3.org/2000/svg">
  <defs
     id="defs6" />
  <sodipodi:namedview
     id="namedview4"
     pagecolor="#ffffff"
     bordercolor="#000000"
     borderopacity="0.25"
     inkscape:showpageshadow="2"
     inkscape:pageopacity="0.0"
     inkscape:pagecheckerboard="0"
     inkscape:deskcolor="#d1d1d1" />
  <g
     id="g8"
     inkscape:groupmode="layer"
     inkscape:label="ink_ext_XXXXXX"
     transform="matrix(1.3333333,0,0,-1.3333333,0,5555.56)">
    <g
       id="g10"
       transform="scale(0.1)">
      <path
         d="M 0,41666.7 V 0 H 50000 V 41666.7 H 0"
         style="fill:#ffffff;fill-opacity:1;fill-rule:nonzero;stroke:none"
         id="path12" />
      <path
         d="m 37642.4,41666.7 h -1708 l 853.9,-810.1 z m -23536.5,0 h -1708 l 854,-810.1 z m 30167.9,0 -7485,-7100 -7484.3,7100 H 20736.6 L 13252.1,34566.8 5767.71,41666.7 H 0 V 36065.8 L 1483.85,37473.6 13251.9,26309.7 25020.5,37473.6 36788.3,26309.7 48557.8,37473.7 50000,36105.5 v 5561.2 z M 36788.9,20019.8 25020.9,31183.6 13252.3,20019.9 1483.85,31183.9 0,29776.2 V 21518.8 L 1484.04,22926.7 13252.1,11762.8 25020.7,22926.7 36788.4,11763 48557.8,22926.8 50000,21558.7 v 8257.2 l -1441.6,1367.6 z M 36788.9,5473 25020.7,16636.9 13252.3,5473.1 1483.85,16637.1 0,15229.4 V 6971.9 L 1484.04,8379.8 10317.3,0 H 16187 L 25020.7,8379.9 33853.9,0 h 5869.5 L 48558,8380 50000,7012 v 8257.2 l -1441.6,1367.5 z M 22817.5,0 h 4406.3 L 25020.7,2090 Z M 0,682.398 V 0 H 3687.16 L 1483.85,2090.1 Z M 46355,0 h 3645 V 722.098 L 48558.2,2089.8 46355,0"
         style="fill:#000000;fill-opacity:1;fill-rule:nonzero;stroke:none"
         id="path14" />
    </g>
  </g>
</svg>
